<svg width="240" height="640" xmlns="http://www.w3.org/2000/svg" version="1.1" xmlns:xlink="http://www.w3.org/1999/xlink" xmlns:svgjs="http://svgjs.com/svgjs">
    <defs />
    <g id="ent-scale">
        <line x1="208" y1="10" x2="208" y2="640" stroke-dasharray="1,14" stroke="#999999" stroke-width="8"/>
        <line x1="216" y1="40" x2="216" y2="640" stroke-dasharray="1,59" stroke="#777777" stroke-width="16"/>
        <text font-family="Helvetica, Arial, sans-serif" transform="matrix(6.123233995736766e-17,1,-1,6.123233995736766e-17,33.15625,-2.546875)" fill="#444444" x="505" y="-214.796875">
            <tspan dy="20.8" x="505">2012</tspan>
        </text>
        <text font-family="Helvetica, Arial, sans-serif" transform="matrix(6.123233995736766e-17,1,-1,6.123233995736766e-17,33.15625,-2.546875)" fill="#444444" x="385" y="-214.796875">
            <tspan dy="20.8" x="385">2014</tspan>
        </text>
        <text font-family="Helvetica, Arial, sans-serif" transform="matrix(6.123233995736766e-17,1,-1,6.123233995736766e-17,33.15625,-2.546875)" fill="#444444" x="265" y="-214.796875">
            <tspan dy="20.8" x="265">2016</tspan>
        </text>
        <text font-family="Helvetica, Arial, sans-serif" transform="matrix(6.123233995736766e-17,1,-1,6.123233995736766e-17,33.15625,-2.546875)" fill="#444444" x="145" y="-214.796875">
            <tspan dy="20.8" x="145">2018</tspan>
        </text>
        <text font-family="Helvetica, Arial, sans-serif" transform="matrix(6.123233995736766e-17,1,-1,6.123233995736766e-17,33.15625,-2.546875)" fill="#444444" x="25" y="-214.796875">
            <tspan dy="20.8" x="25">2020</tspan>
        </text>
    </g>
    <g id="ent-terms">
        <g id="ent-term-mozilla">
            <polyline points="200,650 184,650 184,220 200,220" fill="none" stroke="#d92015" stroke-width="2"/>
            <text font-family="Helvetica, Arial, sans-serif" x="120" y="500" fill="#d92015" text-anchor="end" anchor="end">
                <tspan dy="20.8" x="120">Mozilla</tspan>
            </text>
            <text font-family="Helvetica, Arial, sans-serif" x="120" y="525" font-size="12" fill="#666666" text-anchor="end" size="12" anchor="end">
                <tspan dy="15.600000000000001" x="120">Volunteer</tspan><tspan dy="15.600000000000001" x="120">Public Speaker</tspan><tspan dy="15.600000000000001" x="120">Community Leader</tspan>
            </text>
        </g>
        <g id="ent-term-nv">
            <polyline points="200,480 168,480 168,235 200,235" fill="none" stroke="#999999" stroke-width="2"/>
            <text font-family="Helvetica, Arial, sans-serif" x="120" y="300" fill="#999999" text-anchor="end" anchor="end">
                <tspan dy="20.8" x="120">NexVend</tspan>
            </text>
            <text font-family="Helvetica, Arial, sans-serif" x="120" y="325" font-size="12" fill="#666666" text-anchor="end" size="12" anchor="end">
                <tspan dy="15.600000000000001" x="120">Co-founder</tspan><tspan dy="15.600000000000001" x="120">Director &amp; CTO</tspan>
            </text>
        </g>
        <g id="ent-term-applait">
            <polyline points="200,380 152,380 152,115 200,115" fill="none" stroke="#222222" stroke-width="2"/>
            <text font-family="Helvetica, Arial, sans-serif" x="120" y="150" fill="#222222" text-anchor="end" anchor="end">
                <tspan dy="20.8" x="120">Applait</tspan>
            </text>
            <text font-family="Helvetica, Arial, sans-serif" x="120" y="175" font-size="12" fill="#666666" text-anchor="end" size="12" anchor="end">
                <tspan dy="15.600000000000001" x="120">Co-founder</tspan><tspan dy="15.600000000000001" x="120">Director &amp; CEO</tspan>
            </text>
        </g>
    </g>
</svg>
